<svg width="200" height="30" viewBox="0 0 200 30" fill="none" xmlns="http://www.w3.org/2000/svg">
<path d="M28.8824 15.462C36.5493 15.462 42.7647 13.7811 42.7647 11.7076C42.7647 11.6259 42.7541 11.5186 42.7332 11.3879C41.3858 4.8836 35.6967 0 28.8829 0C22.0405 0 16.3322 4.92475 15.0158 11.4701C15.0053 11.5642 15 11.6437 15 11.7076C15 13.7811 21.2153 15.462 28.8824 15.462Z" fill="white"/>
<path d="M17.5623 9.53929C19.2416 5.03671 23.676 1.8203 28.8822 1.8203C34.0884 1.8203 38.5228 5.03671 40.2021 9.53929C37.8221 8.49471 33.6417 7.80177 28.8822 7.80177C24.1226 7.80177 19.9422 8.49472 17.5623 9.53929Z" fill="#515151"/>
<path d="M28.8824 13.538C36.5493 13.538 42.7647 15.2189 42.7647 17.2924C42.7647 17.3741 42.7541 17.4814 42.7332 17.6121C41.3858 24.1164 35.6967 29 28.8829 29C22.0405 29 16.3322 24.0752 15.0158 17.5299C15.0053 17.4358 15 17.3563 15 17.2924C15 15.2189 21.2153 13.538 28.8824 13.538Z" fill="white"/>
<path d="M17.5623 19.4607C19.2416 23.9633 23.676 27.1797 28.8822 27.1797C34.0884 27.1797 38.5228 23.9633 40.2021 19.4607C37.8221 20.5053 33.6417 21.1982 28.8822 21.1982C24.1226 21.1982 19.9422 20.5053 17.5623 19.4607Z" fill="#2F2F2F"/>
<path opacity="0.96" d="M30.7153 3.05647C33.2634 3.10587 35.5375 4.71539 37.1709 6.57829C37.5151 7.25237 36.4315 7.90893 36.0442 7.21572C34.7614 5.62055 32.8603 4.65962 30.881 4.24528C30.3153 4.13851 30.1687 3.31304 30.7153 3.05647Z" fill="white"/>
<path d="M30.9043 13.5022C36.1931 13.3151 40.2022 12.4175 40.2022 11.3383C40.2022 10.1234 35.1211 9.1386 28.8532 9.1386C22.5853 9.1386 17.5042 10.1234 17.5042 11.3383C17.5042 11.5353 17.6377 11.7262 17.8883 11.9079C18.5389 12.5878 22.0773 13.8335 26.6653 14.9991C21.4443 15.1967 17.5042 16.0881 17.5042 17.1579C17.5042 18.3728 22.5853 19.3577 28.8532 19.3577C35.1211 19.3577 40.2022 18.3728 40.2022 17.1579C40.2022 16.8842 39.9442 16.6221 39.4728 16.3804C38.3478 15.6659 35.0455 14.5497 30.9043 13.5022Z" fill="black"/>
<path d="M71.3088 24.303C69.8509 24.303 68.4915 24.0404 67.2306 23.5152C65.9698 22.9899 64.8862 22.2525 63.98 21.303C63.0737 20.3535 62.4137 19.2424 62 17.9697L65.8417 16.1212C66.3736 17.4343 67.142 18.4444 68.1467 19.1515C69.1712 19.8586 70.2252 20.2121 71.3088 20.2121C72.4317 20.2121 73.3084 19.9798 73.9388 19.5152C74.5693 19.0505 74.8845 18.4848 74.8845 17.8182C74.8845 17.2323 74.6973 16.7677 74.323 16.4242C73.9487 16.0606 73.4365 15.7778 72.7863 15.5758L68.2945 14.1212C66.4229 13.5152 65.034 12.6768 64.1277 11.6061C63.2215 10.5152 62.7683 9.22222 62.7683 7.72727C62.7683 6.37374 63.0934 5.20202 63.7435 4.21212C64.4134 3.20202 65.3393 2.41414 66.5214 1.84848C67.7035 1.28283 69.0924 1 70.6882 1C72.1066 1 73.3971 1.25252 74.5594 1.75757C75.7218 2.24242 76.7167 2.91919 77.5441 3.78788C78.3913 4.63636 79.0119 5.61616 79.4059 6.72727L75.5642 8.57576C75.1899 7.50505 74.5791 6.65657 73.732 6.0303C72.8848 5.40404 71.8702 5.09091 70.6882 5.09091C69.6834 5.09091 68.8757 5.32323 68.2649 5.78788C67.6542 6.25252 67.3488 6.83838 67.3488 7.54545C67.3488 8.61616 68.0778 9.38384 69.5357 9.84848L73.9093 11.2424C75.7612 11.8283 77.1501 12.6364 78.0761 13.6667C79.002 14.697 79.465 15.9899 79.465 17.5455C79.465 18.899 79.1202 20.0808 78.4307 21.0909C77.7609 22.101 76.8152 22.8889 75.5937 23.4545C74.3723 24.0202 72.9439 24.303 71.3088 24.303Z" fill="white"/>
<path d="M81.8434 30V7.39394H85.9807V9.12121C87.1233 7.72727 88.7684 7.0303 90.9158 7.0303C92.4525 7.0303 93.8315 7.41414 95.053 8.18182C96.2942 8.94949 97.2792 9.9899 98.0082 11.303C98.7371 12.596 99.1016 14.0505 99.1016 15.6667C99.1016 17.2626 98.7371 18.7172 98.0082 20.0303C97.2989 21.3434 96.3237 22.3838 95.0826 23.1515C93.8414 23.9192 92.4426 24.303 90.8862 24.303C89.9406 24.303 89.0737 24.1616 88.2857 23.8788C87.4976 23.5758 86.8278 23.1616 86.2762 22.6364V30H81.8434ZM90.3543 20.2121C91.5758 20.2121 92.5707 19.7879 93.339 18.9394C94.1271 18.0707 94.5211 16.9798 94.5211 15.6667C94.5211 14.3535 94.1271 13.2727 93.339 12.4242C92.5707 11.5556 91.5758 11.1212 90.3543 11.1212C89.1525 11.1212 88.1675 11.5455 87.3991 12.3939C86.6505 13.2424 86.2762 14.3333 86.2762 15.6667C86.2762 17 86.6505 18.0909 87.3991 18.9394C88.1675 19.7879 89.1525 20.2121 90.3543 20.2121Z" fill="white"/>
<path d="M101.179 23.9394V1.36364H105.612V23.9394H101.179Z" fill="white"/>
<path d="M108.567 23.9394V1.36364H113V23.9394H108.567Z" fill="white"/>
<path d="M123.52 24.303C121.826 24.303 120.338 23.9192 119.058 23.1515C117.797 22.3636 116.812 21.3131 116.103 20C115.413 18.6869 115.068 17.2323 115.068 15.6364C115.068 13.9798 115.423 12.5051 116.132 11.2121C116.861 9.91919 117.836 8.89899 119.058 8.15151C120.299 7.40404 121.688 7.0303 123.224 7.0303C124.741 7.0303 126.101 7.39394 127.303 8.12121C128.504 8.84848 129.46 9.82828 130.169 11.0606C130.878 12.2727 131.233 13.6465 131.233 15.1818C131.233 15.5051 131.213 15.8283 131.174 16.1515C131.154 16.4545 131.105 16.7172 131.026 16.9394H119.678C119.816 17.9697 120.23 18.798 120.919 19.4242C121.609 20.0505 122.496 20.3636 123.579 20.3636C124.367 20.3636 125.037 20.202 125.589 19.8788C126.16 19.5556 126.603 19.1111 126.918 18.5455L130.465 20.2727C129.972 21.4848 129.105 22.4646 127.864 23.2121C126.623 23.9394 125.175 24.303 123.52 24.303ZM123.224 10.6667C122.358 10.6667 121.619 10.9192 121.008 11.4242C120.397 11.9293 119.984 12.6566 119.767 13.6061H126.534C126.455 12.7172 126.111 12.0101 125.5 11.4848C124.909 10.9394 124.15 10.6667 123.224 10.6667Z" fill="white"/>
<path d="M131.422 23.9394L137.095 15.6364L131.392 7.39394H136.534L139.696 12.1212L142.858 7.39394H148L142.297 15.6364L147.941 23.9394H142.799L139.696 19.1818L136.593 23.9394H131.422Z" fill="white"/>
<path d="M144.259 4H144.689V6H144.356L143.429 4.78926V6H143V4H143.329L144.259 5.20268V4Z" fill="#878787"/>
<path d="M145.022 6V4H146.434V4.36242H145.451V4.8698H146.295V5.23221H145.451V6H145.022Z" fill="#878787"/>
<path d="M147.053 6V4.36242H146.53V4H148V4.36242H147.482V6H147.053Z" fill="#878787"/>
</svg>
