<svg width="200" height="23" viewBox="0 0 200 23" fill="none" xmlns="http://www.w3.org/2000/svg">
<path d="M25.0527 12.1966C30.6047 12.1966 35.1054 10.9794 35.1054 9.47788C35.1054 9.41873 35.0978 9.34107 35.0827 9.24644C34.107 4.5364 29.9872 1 25.0531 1C20.0983 1 15.9647 4.5662 15.0115 9.3059C15.0038 9.37406 15 9.43163 15 9.47788C15 10.9794 19.5008 12.1966 25.0527 12.1966Z" fill="white"/>
<path d="M16.8555 7.90776C18.0715 4.64727 21.2826 2.31815 25.0527 2.31815C28.8227 2.31815 32.0338 4.64727 33.2498 7.90776C31.5264 7.15134 28.4992 6.64956 25.0527 6.64956C21.6061 6.64956 18.5789 7.15134 16.8555 7.90776Z" fill="#515151"/>
<path d="M25.0527 10.8034C30.6047 10.8034 35.1054 12.0206 35.1054 13.5221C35.1054 13.5813 35.0978 13.6589 35.0827 13.7536C34.107 18.4636 29.9872 22 25.0531 22C20.0983 22 15.9647 18.4338 15.0115 13.6941C15.0038 13.6259 15 13.5684 15 13.5221C15 12.0206 19.5008 10.8034 25.0527 10.8034Z" fill="white"/>
<path d="M16.8555 15.0922C18.0715 18.3527 21.2826 20.6819 25.0527 20.6819C28.8227 20.6819 32.0338 18.3527 33.2498 15.0922C31.5264 15.8487 28.4992 16.3504 25.0527 16.3504C21.6061 16.3504 18.5789 15.8487 16.8555 15.0922Z" fill="#2F2F2F"/>
<path opacity="0.96" d="M26.38 3.2133C28.2252 3.24908 29.8719 4.41459 31.0548 5.76358C31.304 6.25171 30.5193 6.72715 30.2389 6.22517C29.3099 5.07004 27.9333 4.3742 26.5 4.07417C26.0904 3.99685 25.9842 3.39909 26.38 3.2133Z" fill="white"/>
<path d="M26.5169 10.7775C30.3467 10.642 33.2499 9.99194 33.2499 9.2105C33.2499 8.33077 29.5704 7.6176 25.0316 7.6176C20.4928 7.6176 16.8134 8.33077 16.8134 9.2105C16.8134 9.35314 16.9101 9.4914 17.0915 9.62294C17.5626 10.1153 20.1249 11.0174 23.4473 11.8614C19.6665 12.0045 16.8134 12.65 16.8134 13.4247C16.8134 14.3044 20.4928 15.0176 25.0316 15.0176C29.5704 15.0176 33.2499 14.3044 33.2499 13.4247C33.2499 13.2265 33.063 13.0367 32.7216 12.8616C31.907 12.3443 29.5157 11.536 26.5169 10.7775Z" fill="black"/>
<path d="M62.5769 18.4817C61.3902 18.4817 60.2838 18.2734 59.2575 17.8568C58.2312 17.4403 57.3492 16.8555 56.6116 16.1024C55.8739 15.3494 55.3368 14.4681 55 13.4587L58.127 11.9927C58.5599 13.0341 59.1853 13.8352 60.0032 14.396C60.837 14.9568 61.6949 15.2372 62.5769 15.2372C63.4909 15.2372 64.2045 15.0529 64.7177 14.6844C65.2308 14.3159 65.4874 13.8673 65.4874 13.3386C65.4874 12.8739 65.335 12.5054 65.0304 12.233C64.7257 11.9446 64.3088 11.7203 63.7796 11.5601L60.1234 10.4065C58.6 9.92581 57.4695 9.26089 56.7319 8.4117C55.9942 7.5465 55.6254 6.52107 55.6254 5.33542C55.6254 4.26193 55.89 3.33264 56.4192 2.54754C56.9644 1.74643 57.7181 1.12156 58.6802 0.672936C59.6424 0.224312 60.7729 0 62.0718 0C63.2263 0 64.2767 0.200278 65.2228 0.600835C66.1689 0.985371 66.9787 1.52212 67.6522 2.21108C68.3417 2.88401 68.8469 3.66109 69.1676 4.54232L66.0406 6.00836C65.7359 5.15918 65.2388 4.48624 64.5493 3.98955C63.8598 3.49286 63.0339 3.24451 62.0718 3.24451C61.2539 3.24451 60.5965 3.42877 60.0994 3.79728C59.6023 4.1658 59.3537 4.63044 59.3537 5.19122C59.3537 6.0404 59.947 6.64925 61.1337 7.01776L64.6936 8.1233C66.201 8.58795 67.3315 9.22884 68.0852 10.046C68.8389 10.8631 69.2157 11.8885 69.2157 13.1223C69.2157 14.1958 68.9351 15.1331 68.3738 15.9342C67.8286 16.7353 67.0589 17.3602 66.0647 17.8088C65.0705 18.2574 63.9079 18.4817 62.5769 18.4817Z" fill="white"/>
<path d="M71.1516 23V5.07106H74.5191V6.44096C75.4492 5.33542 76.7882 4.78265 78.5361 4.78265C79.7869 4.78265 80.9094 5.08708 81.9036 5.69592C82.9139 6.30477 83.7156 7.12992 84.309 8.17137C84.9023 9.1968 85.199 10.3504 85.199 11.6322C85.199 12.8979 84.9023 14.0515 84.309 15.093C83.7317 16.1344 82.9379 16.9596 81.9277 17.5684C80.9174 18.1773 79.7789 18.4817 78.512 18.4817C77.7423 18.4817 77.0368 18.3696 76.3953 18.1452C75.7539 17.9049 75.2087 17.5765 74.7597 17.1599V23H71.1516ZM78.0791 15.2372C79.0733 15.2372 79.8831 14.9007 80.5085 14.2278C81.1499 13.5388 81.4706 12.6736 81.4706 11.6322C81.4706 10.5907 81.1499 9.73354 80.5085 9.06061C79.8831 8.37165 79.0733 8.02717 78.0791 8.02717C77.1009 8.02717 76.2991 8.36364 75.6737 9.03657C75.0644 9.70951 74.7597 10.5747 74.7597 11.6322C74.7597 12.6897 75.0644 13.5549 75.6737 14.2278C76.2991 14.9007 77.1009 15.2372 78.0791 15.2372Z" fill="white"/>
<path d="M86.8898 18.1933V0.2884H90.4979V18.1933H86.8898Z" fill="white"/>
<path d="M92.9033 18.1933V0.2884H96.5113V18.1933H92.9033Z" fill="white"/>
<path d="M105.074 18.4817C103.695 18.4817 102.485 18.1773 101.442 17.5684C100.416 16.9436 99.6142 16.1104 99.0369 15.069C98.4757 14.0275 98.1951 12.8739 98.1951 11.6082C98.1951 10.2943 98.4837 9.1247 99.061 8.09927C99.6543 7.07384 100.448 6.26472 101.442 5.67189C102.453 5.07907 103.583 4.78265 104.834 4.78265C106.069 4.78265 107.175 5.07106 108.153 5.64786C109.131 6.22466 109.909 7.00174 110.486 7.9791C111.064 8.94044 111.352 10.03 111.352 11.2476C111.352 11.504 111.336 11.7604 111.304 12.0167C111.288 12.2571 111.248 12.4653 111.184 12.6416H101.947C102.06 13.4587 102.396 14.1156 102.958 14.6123C103.519 15.109 104.241 15.3574 105.122 15.3574C105.764 15.3574 106.309 15.2292 106.758 14.9728C107.223 14.7165 107.584 14.364 107.841 13.9154L110.727 15.2853C110.326 16.2466 109.621 17.0237 108.61 17.6165C107.6 18.1933 106.421 18.4817 105.074 18.4817ZM104.834 7.66667C104.128 7.66667 103.527 7.86695 103.03 8.2675C102.533 8.66806 102.196 9.24486 102.02 9.99791H107.528C107.464 9.29293 107.183 8.73215 106.686 8.31557C106.205 7.88297 105.588 7.66667 104.834 7.66667Z" fill="white"/>
<path d="M111.506 18.1933L116.124 11.6082L111.482 5.07106H115.667L118.241 8.82027L120.815 5.07106H125L120.358 11.6082L124.952 18.1933H120.767L118.241 14.4201L115.715 18.1933H111.506Z" fill="white"/>
<path d="M121.091 2H121.463V3.78688H121.175L120.372 2.70516V3.78688H120V2H120.285L121.091 3.07453V2Z" fill="#878787"/>
<path d="M121.752 3.78688V2H122.975V2.3238H122.124V2.77711H122.855V3.10091H122.124V3.78688H121.752Z" fill="#878787"/>
<path d="M123.512 3.78688V2.3238H123.059V2H124.332V2.3238H123.884V3.78688H123.512Z" fill="#878787"/>
</svg>
